{
  "source": "C:\\Users\\Peter\\Desktop\\stuff\\MIUN\\quantitative_research\\video_compression\\videos\\BVI-HD\\BVI-HD_CDVL_videos\\ORIG\\SmokeGuns_1920x1080_60fps.mp4",
  "output": "C:\\Users\\Peter\\Desktop\\stuff\\MIUN\\quantitative_research\\video_compression\\compressed_videos\\BVI-HD\\vp9\\2\\SmokeGuns_1920x1080_60fps_vp9.webm",
  "codec": "vp9",
  "ok": "Input #0, mov,mp4,m4a,3gp,3g2,mj2, from 'C:\\Users\\Peter\\Desktop\\stuff\\MIUN\\quantitative_research\\video_compression\\videos\\BVI-HD\\BVI-HD_CDVL_videos\\ORIG\\SmokeGuns_1920x1080_60fps.mp4':\n  Metadata:\n    major_brand     : isom\n    minor_version   : 512\n    compatible_brands: isomiso2avc1mp41\n    encoder         : Lavf54.28.101\n  Duration: 00:00:05.00, start: 0.000000, bitrate: 384353 kb/s\n  Stream #0:0[0x1](und): Video: h264 (High 4:4:4 Predictive) (avc1 / 0x31637661), yuv420p(progressive), 1920x1080, 384348 kb/s, 60 fps, 60 tbr, 60 tbn (default)\n    Metadata:\n      handler_name    : VideoHandler\n      vendor_id       : [0][0][0][0]\n[out#0/webm @ 00000220c7169700] Codec AVOption b:a (set bitrate (in bits/s)) has not been used for any stream. The most likely reason is either wrong type (e.g. a video option with no video streams) or that it is a private option of some decoder which was not actually used for any stream.\nStream mapping:\n  Stream #0:0 -> #0:0 (h264 (native) -> vp9 (libvpx-vp9))\nPress [q] to stop, [?] for help\n[libvpx-vp9 @ 00000220c7740640] v1.15.2-100-g40561f514\nOutput #0, webm, to 'C:\\Users\\Peter\\Desktop\\stuff\\MIUN\\quantitative_research\\video_compression\\compressed_videos\\BVI-HD\\vp9\\2\\SmokeGuns_1920x1080_60fps_vp9.webm':\n  Metadata:\n    major_brand     : isom\n    minor_version   : 512\n    compatible_brands: isomiso2avc1mp41\n    encoder         : Lavf62.3.100\n  Stream #0:0(und): Video: vp9, yuv420p(tv, progressive), 1920x1080, q=2-31, 2000 kb/s, 60 fps, 1k tbn (default)\n    Metadata:\n      encoder         : Lavc62.11.100 libvpx-vp9\n      handler_name    : VideoHandler\n      vendor_id       : [0][0][0][0]\n    Side data:\n      cpb: bitrate max/min/avg: 0/0/0 buffer size: 2000000 vbv_delay: N/A\nframe=    0 fps=0.0 q=0.0 size=       0KiB time=N/A bitrate=N/A speed=N/A elapsed=0:00:00.52    \nframe=    8 fps=7.4 q=53.0 size=       1KiB time=00:00:00.13 bitrate=  38.0kbits/s speed=0.124x elapsed=0:00:01.07    \nframe=   14 fps=8.8 q=51.0 size=       1KiB time=00:00:00.23 bitrate=  21.7kbits/s speed=0.147x elapsed=0:00:01.58    \nframe=   20 fps=9.5 q=49.0 size=       1KiB time=00:00:00.33 bitrate=  15.2kbits/s speed=0.158x elapsed=0:00:02.10    \nframe=   26 fps=9.9 q=49.0 size=       1KiB time=00:00:00.43 bitrate=  11.7kbits/s speed=0.165x elapsed=0:00:02.61    \nframe=   33 fps= 10 q=46.0 size=       1KiB time=00:00:00.55 bitrate=   9.2kbits/s speed=0.175x elapsed=0:00:03.14    \nframe=   38 fps= 10 q=47.0 size=       1KiB time=00:00:00.63 bitrate=   8.0kbits/s speed=0.172x elapsed=0:00:03.67    \nframe=   44 fps= 11 q=45.0 size=       1KiB time=00:00:00.73 bitrate=   6.9kbits/s speed=0.175x elapsed=0:00:04.18    \nframe=   50 fps= 11 q=47.0 size=       1KiB time=00:00:00.83 bitrate=   6.1kbits/s speed=0.177x elapsed=0:00:04.70    \nframe=   57 fps= 11 q=47.0 size=       1KiB time=00:00:00.95 bitrate=   5.3kbits/s speed=0.18x elapsed=0:00:05.26    \nframe=   63 fps= 11 q=45.0 size=       1KiB time=00:00:01.05 bitrate=   4.8kbits/s speed=0.181x elapsed=0:00:05.78    \nframe=   70 fps= 11 q=48.0 size=       1KiB time=00:00:01.15 bitrate=   4.4kbits/s speed=0.182x elapsed=0:00:06.32    \nframe=   75 fps= 11 q=46.0 size=       1KiB time=00:00:01.25 bitrate=   4.1kbits/s speed=0.183x elapsed=0:00:06.84    \nframe=   82 fps= 11 q=49.0 size=       1KiB time=00:00:01.36 bitrate=   3.7kbits/s speed=0.185x elapsed=0:00:07.37    \nframe=   87 fps= 11 q=47.0 size=       1KiB time=00:00:01.45 bitrate=   3.5kbits/s speed=0.183x elapsed=0:00:07.91    \nframe=   94 fps= 11 q=49.0 size=       1KiB time=00:00:01.56 bitrate=   3.2kbits/s speed=0.186x elapsed=0:00:08.41    \nframe=   99 fps= 11 q=48.0 size=       1KiB time=00:00:01.65 bitrate=   3.1kbits/s speed=0.185x elapsed=0:00:08.93    \nframe=  106 fps= 11 q=51.0 size=       1KiB time=00:00:01.76 bitrate=   2.9kbits/s speed=0.187x elapsed=0:00:09.45    \nframe=  112 fps= 11 q=50.0 size=       1KiB time=00:00:01.86 bitrate=   2.7kbits/s speed=0.187x elapsed=0:00:09.96    \nframe=  118 fps= 11 q=52.0 size=       1KiB time=00:00:01.96 bitrate=   2.6kbits/s speed=0.188x elapsed=0:00:10.47    \nframe=  126 fps= 11 q=51.0 size=       1KiB time=00:00:02.10 bitrate=   2.4kbits/s speed=0.191x elapsed=0:00:10.99    \nframe=  132 fps= 11 q=49.0 size=     256KiB time=00:00:02.20 bitrate= 953.3kbits/s speed=0.191x elapsed=0:00:11.52    \nframe=  139 fps= 12 q=50.0 size=     256KiB time=00:00:02.31 bitrate= 905.2kbits/s speed=0.192x elapsed=0:00:12.03    \nframe=  145 fps= 12 q=48.0 size=     256KiB time=00:00:02.41 bitrate= 867.8kbits/s speed=0.192x elapsed=0:00:12.56    \nframe=  151 fps= 12 q=49.0 size=     256KiB time=00:00:02.51 bitrate= 833.3kbits/s speed=0.192x elapsed=0:00:13.10    \nframe=  157 fps= 12 q=47.0 size=     256KiB time=00:00:02.61 bitrate= 801.5kbits/s speed=0.192x elapsed=0:00:13.62    \nframe=  163 fps= 12 q=49.0 size=     256KiB time=00:00:02.71 bitrate= 772.0kbits/s speed=0.192x elapsed=0:00:14.14    \nframe=  169 fps= 12 q=48.0 size=     256KiB time=00:00:02.81 bitrate= 744.6kbits/s speed=0.192x elapsed=0:00:14.66    \nframe=  175 fps= 12 q=50.0 size=     256KiB time=00:00:02.91 bitrate= 719.0kbits/s speed=0.192x elapsed=0:00:15.20    \nframe=  182 fps= 12 q=49.0 size=     256KiB time=00:00:03.03 bitrate= 691.4kbits/s speed=0.192x elapsed=0:00:15.76    \nframe=  187 fps= 11 q=50.0 size=     256KiB time=00:00:03.11 bitrate= 672.9kbits/s speed=0.191x elapsed=0:00:16.30    \nframe=  195 fps= 12 q=50.0 size=     256KiB time=00:00:03.25 bitrate= 645.3kbits/s speed=0.193x elapsed=0:00:16.82    \nframe=  201 fps= 12 q=50.0 size=     256KiB time=00:00:03.35 bitrate= 626.0kbits/s speed=0.193x elapsed=0:00:17.37    \nframe=  208 fps= 12 q=49.0 size=     256KiB time=00:00:03.46 bitrate= 604.9kbits/s speed=0.194x elapsed=0:00:17.89    \nframe=  214 fps= 12 q=46.0 size=     256KiB time=00:00:03.56 bitrate= 588.0kbits/s speed=0.194x elapsed=0:00:18.41    \nframe=  222 fps= 12 q=48.0 size=     256KiB time=00:00:03.68 bitrate= 569.4kbits/s speed=0.194x elapsed=0:00:18.95    \nframe=  227 fps= 12 q=45.0 size=     256KiB time=00:00:03.78 bitrate= 554.3kbits/s speed=0.194x elapsed=0:00:19.50    \nframe=  234 fps= 12 q=46.0 size=     256KiB time=00:00:03.90 bitrate= 537.7kbits/s speed=0.195x elapsed=0:00:20.01    \nframe=  240 fps= 12 q=45.0 size=     256KiB time=00:00:04.00 bitrate= 524.3kbits/s speed=0.195x elapsed=0:00:20.55    \nframe=  245 fps= 12 q=46.0 size=     256KiB time=00:00:04.08 bitrate= 513.6kbits/s speed=0.194x elapsed=0:00:21.07    \nframe=  253 fps= 12 q=44.0 size=     256KiB time=00:00:04.21 bitrate= 497.3kbits/s speed=0.195x elapsed=0:00:21.59    \nframe=  260 fps= 12 q=41.0 size=    1024KiB time=00:00:04.33 bitrate=1935.8kbits/s speed=0.196x elapsed=0:00:22.12    \nframe=  268 fps= 12 q=44.0 size=    1024KiB time=00:00:04.46 bitrate=1878.0kbits/s speed=0.197x elapsed=0:00:22.65    \nframe=  274 fps= 12 q=44.0 size=    1024KiB time=00:00:04.56 bitrate=1836.9kbits/s speed=0.197x elapsed=0:00:23.17    \nframe=  276 fps= 12 q=45.0 size=    1024KiB time=00:00:04.60 bitrate=1823.6kbits/s speed=0.194x elapsed=0:00:23.69    \nframe=  276 fps= 11 q=45.0 size=    1024KiB time=00:00:04.60 bitrate=1823.6kbits/s speed=0.19x elapsed=0:00:24.22    \nframe=  276 fps= 11 q=45.0 size=    1024KiB time=00:00:04.60 bitrate=1823.6kbits/s speed=0.186x elapsed=0:00:24.75    \n[out#0/webm @ 00000220c7169700] video:1239KiB audio:0KiB subtitle:0KiB other streams:0KiB global headers:0KiB muxing overhead: 0.224607%\nframe=  300 fps= 12 q=46.0 Lsize=    1241KiB time=00:00:05.00 bitrate=2034.1kbits/s speed=0.198x elapsed=0:00:25.27    \n",
  "seconds": 25.510665893554688,
  "probe_out": {}
}